<svg height="480pt" viewBox="-44 0 480 480.06043" width="480pt" xmlns="http://www.w3.org/2000/svg"><g fill="#78b9eb"><path d="m200.03125 352c-62.496094 0-113.855469-62.542969-119.453125-145.496094l-.449219-6.566406 119.902344-31.9375 119.914062 31.9375-.441406 6.574219c-1.757812 35.539062-13.800781 69.796875-34.671875 98.617187-22.632812 30.222656-52.742187 46.871094-84.800781 46.871094zm0 0"/><path d="m88.03125 120c-8.835938 0-16-7.164062-16-16v-80c0-8.835938 7.164062-16 16-16h224c8.839844 0 16 7.164062 16 16v80c0 8.835938-7.160156 16-16 16zm97.007812-50.6875c2.203126 6.398438 8.226563 10.691406 14.992188 10.691406 6.769531 0 12.789062-4.292968 14.992188-10.691406l1.898437-5.3125-1.898437-5.3125c-2.203126-6.398438-8.222657-10.691406-14.992188-10.691406-6.765625 0-12.789062 4.292968-14.992188 10.691406l-1.894531 5.3125zm0 0"/><path d="m336.03125 472c-23.792969.085938-44.085938-17.210938-47.769531-40.714844-3.683594-23.507812 10.34375-46.183594 33.023437-53.378906 22.679688-7.199219 47.214844 3.242188 57.757813 24.570312 10.542969 21.332032 3.9375 47.164063-15.554688 60.8125-8.046875 5.640626-17.628906 8.683594-27.457031 8.710938zm0-64c-7.691406-.085938-14.378906 5.253906-16 12.769531-1.621094 7.519531 2.269531 15.140625 9.3125 18.230469 7.042969 3.09375 15.289062.800781 19.726562-5.480469s3.839844-14.820312-1.429687-20.421875c-2.992187-3.242187-7.199219-5.089844-11.609375-5.097656zm0 0"/></g><path d="m343.679688 368.585938c-1.578126-32.226563-14.035157-62.964844-35.335938-87.203126 13.152344-27.949218 19.878906-58.492187 19.6875-89.382812v-70.238281c5.070312-4.515625 7.980469-10.972657 8-17.761719v-80c0-13.253906-10.742188-24-24-24h-224c-13.253906 0-24 10.746094-24 24v80c.023438 6.789062 2.933594 13.246094 8 17.761719v70.238281c-.160156 30.832031 6.578125 61.3125 19.730469 89.199219-18.933594 19.246093-31.109375 44.117187-34.695313 70.871093-18.503906.445313-34.308594 13.46875-38.28125 31.546876l-18.578125 86.703124c-.507812 2.363282.082031 4.828126 1.601563 6.707032 1.519531 1.882812 3.808594 2.972656 6.222656 2.972656h24v-16h-14.101562l16.503906-77.023438c2.414062-11.042968 12.167968-18.929687 23.472656-18.976562h4.253906c11.304688.046875 21.058594 7.933594 23.472656 18.976562l16.503907 77.023438h-14.105469v16h24c2.417969 0 4.707031-1.089844 6.226562-2.972656 1.519532-1.878906 2.105469-4.34375 1.597657-6.707032l-18.582031-86.703124c-3.195313-14.4375-14.066407-25.949219-28.296876-29.960938 2.820313-21.457031 12.195313-41.523438 26.839844-57.457031 23.464844 38.800781 59.632813 63.800781 100.214844 63.800781 34.640625 0 67.023438-17.792969 91.203125-50.078125 3.199219-4.28125 6.199219-8.800781 9.015625-13.417969 16.433594 20.621094 26.027344 45.855469 27.445312 72.183594-29.042968 4.386719-49.761718 30.464844-47.46875 59.746094 2.296876 29.28125 26.824219 51.816406 56.195313 51.625s53.601563-23.042969 55.515625-52.351563c1.914062-29.308593-19.144531-55.117187-48.242188-59.121093zm-143.648438-24.585938c-58.277344 0-106.253906-60.753906-111.480469-138.03125l111.480469-29.6875 111.488281 29.695312c-1.722656 33.976563-13.210937 66.734376-33.085937 94.34375-21.089844 28.175782-48.929688 43.679688-78.402344 43.679688zm-120-320c0-4.417969 3.582031-8 8-8h224c4.417969 0 8 3.582031 8 8v80c0 4.417969-3.582031 8-8 8h-224c-4.417969 0-8-3.582031-8-8zm8 104h224v61.601562l-109.941406-29.328124c-1.347656-.359376-2.765625-.359376-4.113282 0l-109.945312 29.328124zm248 256c22.09375 0 40 17.910156 40 40s-17.90625 40-40 40c-22.089844 0-40-17.910156-40-40-.066406-10.628906 4.125-20.84375 11.640625-28.359375s17.730469-11.710937 28.359375-11.640625zm0 0" fill="#1a6fb0"/><path d="m353.472656 407.617188c-7.855468-8.238282-20.449218-9.742188-30.023437-3.589844-9.570313 6.152344-13.433594 18.234375-9.203125 28.800781 4.230468 10.566406 15.363281 16.644531 26.539062 14.488281 11.171875-2.15625 19.25-11.933594 19.246094-23.316406-.007812-6.097656-2.355469-11.960938-6.558594-16.382812zm-17.441406 24.382812c-4.417969 0-8-3.582031-8-8s3.582031-8 8-8 8 3.582031 8 8-3.582031 8-8 8zm0 0" fill="#1a6fb0"/><path d="m200.03125 88c10.136719-.042969 19.152344-6.445312 22.53125-16h65.46875v-16h-65.46875c-3.339844-9.585938-12.378906-16.007812-22.53125-16.007812-10.148438 0-19.1875 6.421874-22.527344 16.007812h-65.472656v16h65.472656c3.378906 9.554688 12.394532 15.957031 22.527344 16zm0-32c4.417969 0 8 3.582031 8 8s-3.582031 8-8 8-8-3.582031-8-8 3.582031-8 8-8zm0 0" fill="#1a6fb0"/></svg>